<?xml version="1.0" encoding="utf-8"?>
<!-- Generator: Adobe Illustrator 19.1.0, SVG Export Plug-In . SVG Version: 6.00 Build 0)  -->
<svg version="1.1" id="Layer_1" xmlns="http://www.w3.org/2000/svg" xmlns:xlink="http://www.w3.org/1999/xlink" x="0px" y="0px"
	 viewBox="0 0 972 315.6" style="enable-background:new 0 0 972 315.6;" xml:space="preserve">
<style type="text/css">
	.st0{fill:#D6E5F1;}
	.st1{fill:#E7ECF1;}
	.st2{opacity:0.74;}
	.st3{fill:#37200F;}
	.st4{fill:#2A7B40;}
	.st5{fill:#185A2D;}
	.st6{fill:#589968;}
	.st7{fill:#F2F3F4;}
	.st8{opacity:0.71;}
</style>
<rect x="1.4" class="st7" width="970.6" height="307.9"/>
<path class="st0" d="M1.4,138l33.1-16.5l31.3,7.6L86.2,142l27.2,0.1l46.3-12.7l47.7-17.4l23.2,0.1l24.5,11.6l57.2,0.1l16.4-11.5
	l27.3-12.5l46.3,12.7c0,0,36.8,0.6,40.9,0.1c4.1-0.5,32.7-17.1,38.2-12.5c5.4,4.5,20.4-9.1,32.7-0.7s24.5,11,29.9,13.5
	c5.4,2.5,31.3,20.6,31.3,20.6s40.9,4.6,46.3,1.6s9.5-5,17.7-8.5c8.2-3.5,50.4-13.4,50.4-13.4s15,6.6,20.4,0
	c5.5-6.6,25.9-11.6,25.9-11.6s16.3,13.7,21.8,11.7c5.5-2,32.7,0.1,32.7,0.1S810.9,94,819,95.1c8.2,1.1,23.2,0,23.2,0l13.6-7.9
	c12.3,1.5,66.7,10.7,66.7,10.7l27.3-10.5l10.9,0l11.4,18.1l-0.1,82.6l0.1,126.9L1.7,315.6L1.4,138z"/>
<g class="st2">
	<g>
		<polygon class="st3" points="210.3,102.8 211,106.7 211,112.6 210.3,120.2 211,125.8 211,132.9 210.7,137.9 215.6,137.9 
			215.6,129.7 215.1,120.4 215.6,116.4 215.6,110 214.6,104.7 214.8,101.5 210.3,99 		"/>
		<g>
			<path class="st4" d="M214.2,81.1c0,0-9,11-10.5,11.5c-1.5,0.5,0.5,3.5,6,0c5.5-3.5-11.3,6.8-10,8c1.3,1.3,7,0.5,7,0.5
				S196,112,194.2,112.7c-10.5,3.8,19.3,3.8,21.1,0"/>
			<path class="st4" d="M214.1,81.1c0,0,9,11,10.5,11.5c1.5,0.5-0.5,3.5-6,0c-5.5-3.5,11.3,6.8,10,8c-1.3,1.3-11.8,0.3-12.5-3
				c-0.8-3.3,7.5,11.3,18.1,15c10.5,3.8-19.3,3.8-21.1,0"/>
		</g>
		<g>
			<path class="st4" d="M213.2,91c0,0-10.7,11-12.5,11.5c-1.8,0.5,0.6,3.5,7.2,0s-13.4,6.8-11.9,8c1.5,1.3,8.3,0.5,8.3,0.5
				s-12.8,10.8-14.9,11.5c-12.5,3.8,23,3.8,25,0"/>
			<path class="st4" d="M213,91c0,0,10.7,11,12.5,11.5c1.8,0.5-0.6,3.5-7.2,0s13.4,6.8,11.9,8c-1.5,1.3-14,0.3-14.9-3
				s8.9,11.3,21.5,15s-23,3.8-25,0"/>
		</g>
		<g>
			<path class="st4" d="M214.7,66.6c0,0-5,6.9-5.9,7.2c-0.8,0.3,0.3,2.2,3.3,0c3.1-2.2-6.3,4.3-5.6,5s3.9,0.3,3.9,0.3s-6,6.8-7,7.2
				c-5.9,2.4,10.7,2.4,11.7,0"/>
			<path class="st4" d="M214.7,66.6c0,0,5,6.9,5.9,7.2c0.8,0.3-0.3,2.2-3.3,0c-3.1-2.2,6.3,4.3,5.6,5s-6.6,0.2-7-1.9s4.2,7.1,10,9.5
				c5.9,2.4-10.7,2.4-11.7,0"/>
		</g>
		<g>
			<path class="st4" d="M213.4,99.4c0,0-9,11-10.5,11.5s0.5,3.5,6,0s-11.3,6.8-10,8c1.3,1.3,7,0.5,7,0.5s-10.7,10.8-12.5,11.5
				c-10.5,3.8,19.3,3.8,21.1,0"/>
			<path class="st4" d="M213.2,99.4c0,0,9,11,10.5,11.5s-0.5,3.5-6,0c-5.5-3.5,11.3,6.8,10,8c-1.3,1.3-11.8,0.3-12.5-3
				c-0.8-3.3,7.5,11.3,18.1,15c10.5,3.8-19.3,3.8-21.1,0"/>
		</g>
	</g>
	<g>
		<polygon class="st3" points="239.2,108.2 240,112.6 240,119.4 239.2,128.2 240,134.6 240,142.7 239.6,148.6 245.3,148.6 
			245.3,139.1 244.7,128.4 245.3,123.8 245.3,116.5 244.2,110.3 244.4,106.6 239.2,103.8 		"/>
		<g>
			<path class="st5" d="M243.6,82.8c0,0-10.4,12.7-12.1,13.3c-1.7,0.6,0.6,4,6.9,0c6.3-4-13,7.8-11.5,9.2c1.4,1.4,8.1,0.6,8.1,0.6
				s-12.3,12.4-14.4,13.3c-12.1,4.3,22.2,4.3,24.2,0"/>
			<path class="st5" d="M243.4,82.8c0,0,10.4,12.7,12.1,13.3c1.7,0.6-0.6,4-6.9,0c-6.3-4,13,7.8,11.5,9.2
				c-1.4,1.4-13.6,0.3-14.4-3.5c-0.9-3.8,8.7,13,20.8,17.3c12.1,4.3-22.2,4.3-24.2,0"/>
		</g>
		<g>
			<path class="st5" d="M242.4,94.2c0,0-12.3,12.7-14.4,13.3c-2.1,0.6,0.7,4,8.2,0c7.5-4-15.4,7.8-13.7,9.2c1.7,1.4,9.6,0.6,9.6,0.6
				s-14.7,12.4-17.1,13.3c-14.4,4.3,26.4,4.3,28.8,0"/>
			<path class="st5" d="M242.2,94.2c0,0,12.3,12.7,14.4,13.3c2.1,0.6-0.7,4-8.2,0s15.4,7.8,13.7,9.2c-1.7,1.4-16.1,0.3-17.1-3.5
				c-1-3.8,10.3,13,24.7,17.3c14.4,4.3-26.4,4.3-28.8,0"/>
		</g>
		<g>
			<path class="st5" d="M244.2,66.1c0,0-5.8,8-6.7,8.3c-1,0.4,0.3,2.5,3.9,0c3.5-2.5-7.2,4.9-6.4,5.8c0.8,0.9,4.5,0.4,4.5,0.4
				s-6.9,7.8-8,8.3c-6.7,2.7,12.4,2.7,13.5,0"/>
			<path class="st5" d="M244.1,66.1c0,0,5.8,8,6.7,8.3c1,0.4-0.3,2.5-3.9,0c-3.5-2.5,7.2,4.9,6.4,5.8c-0.8,0.9-7.5,0.2-8-2.2
				c-0.5-2.4,4.8,8.2,11.6,10.9c6.7,2.7-12.4,2.7-13.5,0"/>
		</g>
		<g>
			<path class="st5" d="M242.6,103.8c0,0-10.4,12.7-12.1,13.3c-1.7,0.6,0.6,4,6.9,0c6.3-4-13,7.8-11.5,9.2c1.4,1.4,8.1,0.6,8.1,0.6
				s-12.3,12.4-14.4,13.3c-12.1,4.3,22.2,4.3,24.2,0"/>
			<path class="st5" d="M242.4,103.8c0,0,10.4,12.7,12.1,13.3c1.7,0.6-0.6,4-6.9,0c-6.3-4,13,7.8,11.5,9.2
				c-1.4,1.4-13.6,0.3-14.4-3.5c-0.9-3.8,8.7,13,20.8,17.3c12.1,4.3-22.2,4.3-24.2,0"/>
		</g>
	</g>
	<g>
		<polygon class="st3" points="189.9,121.5 190.4,124.4 190.4,129 189.9,134.8 190.4,139.1 190.4,144.5 190.1,148.4 194,148.4 
			194,142.1 193.6,135 194,131.9 194,127 193.2,122.9 193.4,120.4 189.9,118.6 		"/>
		<g>
			<path class="st6" d="M192.8,103.5c0,0-6.9,8.5-8.1,8.9c-1.2,0.4,0.4,2.7,4.6,0s-8.7,5.2-7.7,6.2c1,1,5.4,0.4,5.4,0.4
				s-8.2,8.3-9.6,8.9c-8.1,2.9,14.8,2.9,16.2,0"/>
			<path class="st6" d="M192.7,103.5c0,0,6.9,8.5,8.1,8.9c1.2,0.4-0.4,2.7-4.6,0s8.7,5.2,7.7,6.2c-1,1-9.1,0.2-9.6-2.3
				c-0.6-2.5,5.8,8.7,13.9,11.6c8.1,2.9-14.8,2.9-16.2,0"/>
		</g>
		<g>
			<path class="st6" d="M192,111.1c0,0-8.2,8.5-9.6,8.9c-1.4,0.4,0.5,2.7,5.5,0c5-2.7-10.3,5.2-9.2,6.2s6.4,0.4,6.4,0.4
				s-9.8,8.3-11.5,8.9c-9.6,2.9,17.6,2.9,19.2,0"/>
			<path class="st6" d="M191.9,111.1c0,0,8.2,8.5,9.6,8.9c1.4,0.4-0.5,2.7-5.5,0c-5-2.7,10.3,5.2,9.2,6.2s-10.8,0.2-11.5-2.3
				c-0.7-2.5,6.9,8.7,16.5,11.6c9.6,2.9-17.6,2.9-19.2,0"/>
		</g>
		<g>
			<path class="st6" d="M193.2,92.3c0,0-3.9,5.3-4.5,5.6s0.2,1.7,2.6,0c2.4-1.7-4.8,3.3-4.3,3.9c0.5,0.6,3,0.2,3,0.2
				s-4.6,5.2-5.4,5.6c-4.5,1.8,8.3,1.8,9,0"/>
			<path class="st6" d="M193.1,92.3c0,0,3.9,5.3,4.5,5.6c0.6,0.2-0.2,1.7-2.6,0s4.8,3.3,4.3,3.9c-0.5,0.6-5,0.1-5.4-1.5
				s3.2,5.4,7.7,7.3s-8.3,1.8-9,0"/>
		</g>
		<g>
			<path class="st6" d="M192.1,117.5c0,0-6.9,8.5-8.1,8.9c-1.2,0.4,0.4,2.7,4.6,0c4.2-2.7-8.7,5.2-7.7,6.2c1,1,5.4,0.4,5.4,0.4
				s-8.2,8.3-9.6,8.9c-8.1,2.9,14.8,2.9,16.2,0"/>
			<path class="st6" d="M192,117.5c0,0,6.9,8.5,8.1,8.9c1.2,0.4-0.4,2.7-4.6,0s8.7,5.2,7.7,6.2c-1,1-9.1,0.2-9.6-2.3
				c-0.6-2.5,5.8,8.7,13.9,11.6c8.1,2.9-14.8,2.9-16.2,0"/>
		</g>
	</g>
</g>
<g class="st8">
	<g>
		<polygon class="st3" points="849.7,87 850.4,90.8 850.4,96.7 849.7,104.4 850.4,110 850.4,117 850,122.1 855,122.1 855,113.9 
			854.5,104.6 855,100.6 855,94.2 854,88.9 854.2,85.6 849.7,83.2 		"/>
		<g>
			<path class="st4" d="M853.6,65.3c0,0-9,11-10.5,11.5c-1.5,0.5,0.5,3.5,6,0c5.5-3.5-11.3,6.8-10,8c1.3,1.3,7,0.5,7,0.5
				s-10.7,10.8-12.5,11.5c-10.5,3.8,19.3,3.8,21.1,0"/>
			<path class="st4" d="M853.5,65.3c0,0,9,11,10.5,11.5c1.5,0.5-0.5,3.5-6,0c-5.5-3.5,11.3,6.8,10,8c-1.3,1.3-11.8,0.3-12.5-3
				c-0.8-3.3,7.5,11.3,18.1,15c10.5,3.8-19.3,3.8-21.1,0"/>
		</g>
		<g>
			<path class="st4" d="M852.5,75.1c0,0-10.7,11-12.5,11.5s0.6,3.5,7.2,0c6.6-3.5-13.4,6.8-11.9,8c1.5,1.3,8.3,0.5,8.3,0.5
				s-12.8,10.8-14.9,11.5c-12.5,3.8,23,3.8,25,0"/>
			<path class="st4" d="M852.4,75.1c0,0,10.7,11,12.5,11.5s-0.6,3.5-7.2,0c-6.6-3.5,13.4,6.8,11.9,8c-1.5,1.3-14,0.3-14.9-3
				c-0.9-3.3,8.9,11.3,21.5,15c12.5,3.8-23,3.8-25,0"/>
		</g>
		<g>
			<path class="st4" d="M854.1,50.7c0,0-5,6.9-5.9,7.2s0.3,2.2,3.3,0c3.1-2.2-6.3,4.3-5.6,5c0.7,0.8,3.9,0.3,3.9,0.3s-6,6.8-7,7.2
				c-5.9,2.4,10.7,2.4,11.7,0"/>
			<path class="st4" d="M854,50.7c0,0,5,6.9,5.9,7.2c0.8,0.3-0.3,2.2-3.3,0s6.3,4.3,5.6,5c-0.7,0.8-6.6,0.2-7-1.9
				c-0.4-2,4.2,7.1,10,9.5c5.9,2.4-10.7,2.4-11.7,0"/>
		</g>
		<g>
			<path class="st4" d="M852.7,83.6c0,0-9,11-10.5,11.5c-1.5,0.5,0.5,3.5,6,0s-11.3,6.8-10,8c1.3,1.3,7,0.5,7,0.5
				s-10.7,10.8-12.5,11.5c-10.5,3.8,19.3,3.8,21.1,0"/>
			<path class="st4" d="M852.6,83.6c0,0,9,11,10.5,11.5c1.5,0.5-0.5,3.5-6,0s11.3,6.8,10,8c-1.3,1.3-11.8,0.3-12.5-3
				c-0.8-3.3,7.5,11.3,18.1,15c10.5,3.8-19.3,3.8-21.1,0"/>
		</g>
	</g>
	<g>
		<polygon class="st3" points="820.4,69.8 821.1,74.2 821.1,81 820.4,89.8 821.1,96.2 821.1,104.4 820.7,110.2 826.5,110.2 
			826.5,100.7 825.9,90 826.5,85.4 826.5,78.1 825.3,71.9 825.5,68.2 820.4,65.4 		"/>
		<g>
			<path class="st5" d="M824.7,44.4c0,0-10.4,12.7-12.1,13.3c-1.7,0.6,0.6,4,6.9,0c6.3-4-13,7.8-11.5,9.2c1.4,1.4,8.1,0.6,8.1,0.6
				s-12.3,12.4-14.4,13.3c-12.1,4.3,22.2,4.3,24.2,0"/>
			<path class="st5" d="M824.6,44.4c0,0,10.4,12.7,12.1,13.3c1.7,0.6-0.6,4-6.9,0c-6.3-4,13,7.8,11.5,9.2
				c-1.4,1.4-13.6,0.3-14.4-3.5c-0.9-3.8,8.7,13,20.8,17.3c12.1,4.3-22.2,4.3-24.2,0"/>
		</g>
		<g>
			<path class="st5" d="M823.5,55.8c0,0-12.3,12.7-14.4,13.3s0.7,4,8.2,0c7.5-4-15.4,7.8-13.7,9.2c1.7,1.4,9.6,0.6,9.6,0.6
				S798.5,91.3,796,92.1c-14.4,4.3,26.4,4.3,28.8,0"/>
			<path class="st5" d="M823.3,55.8c0,0,12.3,12.7,14.4,13.3s-0.7,4-8.2,0c-7.5-4,15.4,7.8,13.7,9.2c-1.7,1.4-16.1,0.3-17.1-3.5
				c-1-3.8,10.3,13,24.7,17.3s-26.4,4.3-28.8,0"/>
		</g>
		<g>
			<path class="st5" d="M825.3,27.7c0,0-5.8,8-6.7,8.3c-1,0.4,0.3,2.5,3.9,0c3.5-2.5-7.2,4.9-6.4,5.8c0.8,0.9,4.5,0.4,4.5,0.4
				s-6.9,7.8-8,8.3c-6.7,2.7,12.4,2.7,13.5,0"/>
			<path class="st5" d="M825.2,27.7c0,0,5.8,8,6.7,8.3s-0.3,2.5-3.9,0c-3.5-2.5,7.2,4.9,6.4,5.8c-0.8,0.9-7.5,0.2-8-2.2
				c-0.5-2.4,4.8,8.2,11.6,10.9c6.7,2.7-12.4,2.7-13.5,0"/>
		</g>
		<g>
			<path class="st5" d="M823.7,65.4c0,0-10.4,12.7-12.1,13.3c-1.7,0.6,0.6,4,6.9,0c6.3-4-13,7.8-11.5,9.2c1.4,1.4,8.1,0.6,8.1,0.6
				s-12.3,12.4-14.4,13.3c-12.1,4.3,22.2,4.3,24.2,0"/>
			<path class="st5" d="M823.6,65.4c0,0,10.4,12.7,12.1,13.3c1.7,0.6-0.6,4-6.9,0c-6.3-4,13,7.8,11.5,9.2
				c-1.4,1.4-13.6,0.3-14.4-3.5c-0.9-3.8,8.7,13,20.8,17.3c12.1,4.3-22.2,4.3-24.2,0"/>
		</g>
	</g>
	<g>
		<polygon class="st3" points="798.2,102.4 798.7,105.3 798.7,109.9 798.2,115.7 798.7,120.1 798.7,125.5 798.5,129.4 802.3,129.4 
			802.3,123 801.9,115.9 802.3,112.8 802.3,107.9 801.5,103.8 801.7,101.3 798.2,99.5 		"/>
		<g>
			<path class="st6" d="M801.1,84.4c0,0-6.9,8.5-8.1,8.9c-1.2,0.4,0.4,2.7,4.6,0s-8.7,5.2-7.7,6.2s5.4,0.4,5.4,0.4s-8.2,8.3-9.6,8.9
				c-8.1,2.9,14.8,2.9,16.2,0"/>
			<path class="st6" d="M801,84.4c0,0,6.9,8.5,8.1,8.9s-0.4,2.7-4.6,0s8.7,5.2,7.7,6.2c-1,1-9.1,0.2-9.6-2.3
				c-0.6-2.5,5.8,8.7,13.9,11.6c8.1,2.9-14.8,2.9-16.2,0"/>
		</g>
		<g>
			<path class="st6" d="M800.3,92c0,0-8.2,8.5-9.6,8.9c-1.4,0.4,0.5,2.7,5.5,0c5-2.7-10.3,5.2-9.2,6.2c1.1,1,6.4,0.4,6.4,0.4
				s-9.8,8.3-11.5,8.9c-9.6,2.9,17.6,2.9,19.2,0"/>
			<path class="st6" d="M800.2,92c0,0,8.2,8.5,9.6,8.9c1.4,0.4-0.5,2.7-5.5,0s10.3,5.2,9.2,6.2s-10.8,0.2-11.5-2.3
				c-0.7-2.5,6.9,8.7,16.5,11.6s-17.6,2.9-19.2,0"/>
		</g>
		<g>
			<path class="st6" d="M801.5,73.2c0,0-3.9,5.3-4.5,5.6s0.2,1.7,2.6,0c2.4-1.7-4.8,3.3-4.3,3.9c0.5,0.6,3,0.2,3,0.2
				s-4.6,5.2-5.4,5.6c-4.5,1.8,8.3,1.8,9,0"/>
			<path class="st6" d="M801.5,73.2c0,0,3.9,5.3,4.5,5.6s-0.2,1.7-2.6,0s4.8,3.3,4.3,3.9c-0.5,0.6-5,0.1-5.4-1.5
				c-0.3-1.6,3.2,5.4,7.7,7.3c4.5,1.8-8.3,1.8-9,0"/>
		</g>
		<g>
			<path class="st6" d="M800.5,98.5c0,0-6.9,8.5-8.1,8.9c-1.2,0.4,0.4,2.7,4.6,0c4.2-2.7-8.7,5.2-7.7,6.2c1,1,5.4,0.4,5.4,0.4
				s-8.2,8.3-9.6,8.9c-8.1,2.9,14.8,2.9,16.2,0"/>
			<path class="st6" d="M800.4,98.5c0,0,6.9,8.5,8.1,8.9c1.2,0.4-0.4,2.7-4.6,0s8.7,5.2,7.7,6.2s-9.1,0.2-9.6-2.3s5.8,8.7,13.9,11.6
				c8.1,2.9-14.8,2.9-16.2,0"/>
		</g>
	</g>
</g>
</svg>
