<?xml version="1.0" encoding="utf-8"?>
<!-- Generator: Adobe Illustrator 19.1.0, SVG Export Plug-In . SVG Version: 6.00 Build 0)  -->
<svg version="1.1" id="Layer_1" xmlns="http://www.w3.org/2000/svg" xmlns:xlink="http://www.w3.org/1999/xlink" x="0px" y="0px"
	 viewBox="0 0 972 315.6" style="enable-background:new 0 0 972 315.6;" xml:space="preserve">
<style type="text/css">
	.st0{fill:#D6E5F1;}
	.st1{fill:#E7ECF1;}
	.st2{opacity:0.74;}
	.st3{fill:#37200F;}
	.st4{fill:#2A7B40;}
	.st5{fill:#185A2D;}
	.st6{fill:#589968;}
</style>
<rect class="st0" width="972" height="307.9"/>
<polygon class="st1" points="1.6,30.2 45.5,30.2 67.9,30.2 91.9,61.9 130.7,61.9 179.4,61.9 205.8,90.9 236.2,90.9 255.2,90.9 
	271.2,102.2 292.2,124.7 326.6,124.7 344.5,124.7 396.8,139.2 437.2,124.7 470.1,124.7 505,158 547.8,179.4 574.7,168.2 621.1,158 
	633,147.2 673.4,158 692.8,171.4 712.3,195.5 737.7,195.5 760.1,221.3 773.6,245.4 791.5,251.8 807.8,251.8 816.4,239 854.5,229.3 
	878.3,251.8 921.6,251.8 953,269.5 972,285.6 972,315.6 0,315.6 "/>
<g class="st2">
	<g>
		<polygon class="st3" points="581.7,136.6 582.3,140.5 582.3,146.4 581.7,154 582.3,159.6 582.3,166.7 582,171.7 587,171.7 
			587,163.5 586.5,154.2 587,150.2 587,143.8 586,138.5 586.2,135.3 581.7,132.8 		"/>
		<g>
			<path class="st4" d="M585.6,114.9c0,0-9,11-10.5,11.5c-1.5,0.5,0.5,3.5,6,0c5.5-3.5-11.3,6.8-10,8c1.3,1.3,7,0.5,7,0.5
				s-10.7,10.8-12.5,11.5c-10.5,3.8,19.3,3.8,21.1,0"/>
			<path class="st4" d="M585.5,114.9c0,0,9,11,10.5,11.5c1.5,0.5-0.5,3.5-6,0c-5.5-3.5,11.3,6.8,10,8c-1.3,1.3-11.8,0.3-12.5-3
				c-0.8-3.3,7.5,11.3,18.1,15c10.5,3.8-19.3,3.8-21.1,0"/>
		</g>
		<g>
			<path class="st4" d="M584.5,124.8c0,0-10.7,11-12.5,11.5s0.6,3.5,7.2,0c6.6-3.5-13.4,6.8-11.9,8s8.3,0.5,8.3,0.5
				s-12.8,10.8-14.9,11.5c-12.5,3.8,23,3.8,25,0"/>
			<path class="st4" d="M584.4,124.8c0,0,10.7,11,12.5,11.5s-0.6,3.5-7.2,0c-6.6-3.5,13.4,6.8,11.9,8s-14,0.3-14.9-3
				s8.9,11.3,21.5,15c12.5,3.8-23,3.8-25,0"/>
		</g>
		<g>
			<path class="st4" d="M586.1,100.3c0,0-5,6.9-5.9,7.2c-0.8,0.3,0.3,2.2,3.3,0c3.1-2.2-6.3,4.3-5.6,5c0.7,0.8,3.9,0.3,3.9,0.3
				s-6,6.8-7,7.2c-5.9,2.4,10.7,2.4,11.7,0"/>
			<path class="st4" d="M586,100.3c0,0,5,6.9,5.9,7.2c0.8,0.3-0.3,2.2-3.3,0c-3.1-2.2,6.3,4.3,5.6,5c-0.7,0.8-6.6,0.2-7-1.9
				c-0.4-2,4.2,7.1,10,9.5c5.9,2.4-10.7,2.4-11.7,0"/>
		</g>
		<g>
			<path class="st4" d="M584.7,133.2c0,0-9,11-10.5,11.5s0.5,3.5,6,0c5.5-3.5-11.3,6.8-10,8c1.3,1.3,7,0.5,7,0.5
				s-10.7,10.8-12.5,11.5c-10.5,3.8,19.3,3.8,21.1,0"/>
			<path class="st4" d="M584.6,133.2c0,0,9,11,10.5,11.5s-0.5,3.5-6,0c-5.5-3.5,11.3,6.8,10,8c-1.3,1.3-11.8,0.3-12.5-3
				c-0.8-3.3,7.5,11.3,18.1,15s-19.3,3.8-21.1,0"/>
		</g>
	</g>
	<g>
		<polygon class="st3" points="610.6,142 611.3,146.4 611.3,153.2 610.6,162 611.3,168.4 611.3,176.5 611,182.4 616.7,182.4 
			616.7,172.9 616.1,162.2 616.7,157.6 616.7,150.3 615.5,144.1 615.7,140.4 610.6,137.6 		"/>
		<g>
			<path class="st5" d="M614.9,116.6c0,0-10.4,12.7-12.1,13.3c-1.7,0.6,0.6,4,6.9,0c6.3-4-13,7.8-11.5,9.2c1.4,1.4,8.1,0.6,8.1,0.6
				s-12.3,12.4-14.4,13.3c-12.1,4.3,22.2,4.3,24.2,0"/>
			<path class="st5" d="M614.8,116.6c0,0,10.4,12.7,12.1,13.3c1.7,0.6-0.6,4-6.9,0c-6.3-4,13,7.8,11.5,9.2
				c-1.4,1.4-13.6,0.3-14.4-3.5c-0.9-3.8,8.7,13,20.8,17.3c12.1,4.3-22.2,4.3-24.2,0"/>
		</g>
		<g>
			<path class="st5" d="M613.7,128c0,0-12.3,12.7-14.4,13.3s0.7,4,8.2,0c7.5-4-15.4,7.8-13.7,9.2c1.7,1.4,9.6,0.6,9.6,0.6
				s-14.7,12.4-17.1,13.3c-14.4,4.3,26.4,4.3,28.8,0"/>
			<path class="st5" d="M613.5,128c0,0,12.3,12.7,14.4,13.3c2.1,0.6-0.7,4-8.2,0s15.4,7.8,13.7,9.2c-1.7,1.4-16.1,0.3-17.1-3.5
				c-1-3.8,10.3,13,24.7,17.3s-26.4,4.3-28.8,0"/>
		</g>
		<g>
			<path class="st5" d="M615.5,99.9c0,0-5.8,8-6.7,8.3c-1,0.4,0.3,2.5,3.9,0c3.5-2.5-7.2,4.9-6.4,5.8c0.8,0.9,4.5,0.4,4.5,0.4
				s-6.9,7.8-8,8.3c-6.7,2.7,12.4,2.7,13.5,0"/>
			<path class="st5" d="M615.4,99.9c0,0,5.8,8,6.7,8.3c1,0.4-0.3,2.5-3.9,0c-3.5-2.5,7.2,4.9,6.4,5.8c-0.8,0.9-7.5,0.2-8-2.2
				c-0.5-2.4,4.8,8.2,11.6,10.9s-12.4,2.7-13.5,0"/>
		</g>
		<g>
			<path class="st5" d="M613.9,137.6c0,0-10.4,12.7-12.1,13.3c-1.7,0.6,0.6,4,6.9,0c6.3-4-13,7.8-11.5,9.2c1.4,1.4,8.1,0.6,8.1,0.6
				s-12.3,12.4-14.4,13.3c-12.1,4.3,22.2,4.3,24.2,0"/>
			<path class="st5" d="M613.8,137.6c0,0,10.4,12.7,12.1,13.3c1.7,0.6-0.6,4-6.9,0c-6.3-4,13,7.8,11.5,9.2
				c-1.4,1.4-13.6,0.3-14.4-3.5c-0.9-3.8,8.7,13,20.8,17.3c12.1,4.3-22.2,4.3-24.2,0"/>
		</g>
	</g>
	<g>
		<polygon class="st3" points="561.2,155.3 561.7,158.2 561.7,162.8 561.2,168.6 561.7,172.9 561.7,178.3 561.5,182.2 565.3,182.2 
			565.3,175.9 564.9,168.8 565.3,165.7 565.3,160.8 564.5,156.7 564.7,154.2 561.2,152.4 		"/>
		<g>
			<path class="st6" d="M564.1,137.3c0,0-6.9,8.5-8.1,8.9c-1.2,0.4,0.4,2.7,4.6,0c4.2-2.7-8.7,5.2-7.7,6.2c1,1,5.4,0.4,5.4,0.4
				s-8.2,8.3-9.6,8.9c-8.1,2.9,14.8,2.9,16.2,0"/>
			<path class="st6" d="M564.1,137.3c0,0,6.9,8.5,8.1,8.9s-0.4,2.7-4.6,0c-4.2-2.7,8.7,5.2,7.7,6.2c-1,1-9.1,0.2-9.6-2.3
				s5.8,8.7,13.9,11.6c8.1,2.9-14.8,2.9-16.2,0"/>
		</g>
		<g>
			<path class="st6" d="M563.3,144.9c0,0-8.2,8.5-9.6,8.9c-1.4,0.4,0.5,2.7,5.5,0c5-2.7-10.3,5.2-9.2,6.2c1.1,1,6.4,0.4,6.4,0.4
				s-9.8,8.3-11.5,8.9c-9.6,2.9,17.6,2.9,19.2,0"/>
			<path class="st6" d="M563.2,144.9c0,0,8.2,8.5,9.6,8.9c1.4,0.4-0.5,2.7-5.5,0c-5-2.7,10.3,5.2,9.2,6.2c-1.1,1-10.8,0.2-11.5-2.3
				c-0.7-2.5,6.9,8.7,16.5,11.6c9.6,2.9-17.6,2.9-19.2,0"/>
		</g>
		<g>
			<path class="st6" d="M564.5,126.1c0,0-3.9,5.3-4.5,5.6c-0.6,0.2,0.2,1.7,2.6,0c2.4-1.7-4.8,3.3-4.3,3.9c0.5,0.6,3,0.2,3,0.2
				s-4.6,5.2-5.4,5.6c-4.5,1.8,8.3,1.8,9,0"/>
			<path class="st6" d="M564.5,126.1c0,0,3.9,5.3,4.5,5.6c0.6,0.2-0.2,1.7-2.6,0c-2.4-1.7,4.8,3.3,4.3,3.9c-0.5,0.6-5,0.1-5.4-1.5
				c-0.3-1.6,3.2,5.4,7.7,7.3c4.5,1.8-8.3,1.8-9,0"/>
		</g>
		<g>
			<path class="st6" d="M563.5,151.3c0,0-6.9,8.5-8.1,8.9s0.4,2.7,4.6,0c4.2-2.7-8.7,5.2-7.7,6.2c1,1,5.4,0.4,5.4,0.4
				s-8.2,8.3-9.6,8.9c-8.1,2.9,14.8,2.9,16.2,0"/>
			<path class="st6" d="M563.4,151.3c0,0,6.9,8.5,8.1,8.9c1.2,0.4-0.4,2.7-4.6,0c-4.2-2.7,8.7,5.2,7.7,6.2c-1,1-9.1,0.2-9.6-2.3
				c-0.6-2.5,5.8,8.7,13.9,11.6c8.1,2.9-14.8,2.9-16.2,0"/>
		</g>
	</g>
</g>
</svg>
